<svg xmlns="http://www.w3.org/2000/svg" width="34" height="34" viewBox="0 0 34 34">
    <defs>
        <linearGradient id="a" x1="0%" y1="50%" y2="50%">
            <stop offset="0%" stop-color="#32C5FF"/>
            <stop offset="31.037%" stop-color="#00CDF1"/>
            <stop offset="67.63%" stop-color="#00D4D5"/>
            <stop offset="100%" stop-color="#44D7B6"/>
        </linearGradient>
    </defs>
    <path fill="url(#a)" fill-rule="nonzero" d="M17 0C7.611 0 0 7.611 0 17s7.611 17 17 17 17-7.611 17-17S26.389 0 17 0zm10.096 27.096a14.234 14.234 0 0 1-5.855 3.542V28.09c0-1.34-.459-2.324-1.377-2.955a14.876 14.876 0 0 0 1.585-.233c.481-.1.99-.243 1.527-.431a7.567 7.567 0 0 0 1.445-.673c.426-.26.835-.597 1.228-1.012.393-.415.722-.886.988-1.411.266-.526.476-1.157.63-1.893a11.82 11.82 0 0 0 .233-2.432c0-1.716-.559-3.177-1.676-4.383.509-1.328.453-2.772-.166-4.333l-.416-.05c-.287-.033-.805.089-1.552.365-.747.277-1.585.73-2.515 1.362a15.273 15.273 0 0 0-4.1-.548c-1.428 0-2.79.183-4.084.548a14.219 14.219 0 0 0-1.669-.988c-.526-.26-.946-.437-1.262-.531a4.327 4.327 0 0 0-.88-.175 3.118 3.118 0 0 0-.522-.016 1.061 1.061 0 0 0-.166.033c-.62 1.572-.676 3.016-.166 4.333-1.118 1.206-1.677 2.667-1.677 4.383 0 .885.077 1.696.232 2.432.155.736.365 1.367.631 1.893.266.525.595.996.988 1.41.393.416.802.753 1.228 1.013.427.26.908.485 1.445.673.536.188 1.046.332 1.527.431.482.1 1.01.177 1.586.233-.908.62-1.362 1.605-1.362 2.955v2.597a14.234 14.234 0 0 1-6.02-3.592A14.232 14.232 0 0 1 2.723 17 14.235 14.235 0 0 1 6.905 6.904 14.232 14.232 0 0 1 17 2.723a14.235 14.235 0 0 1 10.096 4.182A14.233 14.233 0 0 1 31.277 17a14.233 14.233 0 0 1-4.182 10.096z"/>
</svg>
