<svg xmlns="http://www.w3.org/2000/svg" width="701" height="135" viewBox="0 0 701 135">
    <g fill="none" fill-rule="nonzero" opacity=".04">
        <path fill="#CFCFCF" stroke="#CFCFCF" stroke-linecap="round" stroke-linejoin="round" stroke-width="2.49" d="M109.674 47.202c24.135 0 40.49 15.73 40.49 39.227v71.087h-32.711v-66.11c0-9.955-5.984-16.327-14.76-16.327-8.976 0-14.76 6.372-14.76 16.328v66.109H55.222v-66.11c0-9.955-5.785-16.327-14.76-16.327-8.777 0-14.76 6.372-14.76 16.328v66.109H-6.81V49.193h31.514l.4 10.354c7.18-8.363 16.953-12.345 27.126-12.345 11.768 0 21.541 4.779 27.725 12.943 7.58-8.762 18.55-12.943 29.72-12.943zM267.048 101.761c0 4.381-.2 9.359-.798 13.142h-66.22c1.395 11.749 5.983 19.116 17.352 19.116 7.979 0 14.162-3.982 18.75-10.553l25.131 12.345c-8.178 14.138-23.935 23.696-43.282 23.696-31.316 0-52.458-21.904-52.458-55.157 0-34.05 20.345-57.148 50.862-57.148 30.517 0 50.663 21.704 50.663 54.56z"/>
        <path fill="#1F2A30" d="M216.385 72.69c-9.574 0-14.56 7.367-16.356 20.31h33.11c-1.595-13.142-6.781-20.31-16.754-20.31z"/>
        <path fill="#CFCFCF" stroke="#CFCFCF" stroke-linecap="round" stroke-linejoin="round" stroke-width="2.49" d="M325.49 131.63c4.986 0 9.972-.996 15.158-3.186v26.085c-7.978 3.385-17.353 4.978-25.93 4.978-19.347 0-32.512-13.142-32.512-32.855V17.532h32.712v31.66h24.334v26.683h-24.334v44.006c0 6.97 4.388 11.749 10.571 11.749zM418.238 47.202c22.938 0 38.296 15.73 38.296 39.227v71.087h-32.711v-66.11c0-9.955-6.782-16.327-17.154-16.327-10.571 0-17.353 6.372-17.353 16.328v66.109h-32.512V2.2h32.512v57.746c7.58-8.563 18.151-12.744 28.922-12.744z"/>
        <path fill="#CFCFCF" stroke="#CFCFCF" stroke-width="2.49" d="M526.145 159.507c-32.711 0-54.452-22.501-54.452-56.153 0-33.651 21.741-56.152 54.452-56.152 32.313 0 53.854 22.5 53.854 56.152s-21.541 56.153-53.854 56.153z"/>
        <path fill="#1F2A30" d="M525.946 131.63c12.167 0 20.345-11.35 20.345-28.276 0-16.925-8.178-28.275-20.345-28.275-12.167 0-20.544 11.35-20.544 28.275 0 16.926 8.377 28.276 20.544 28.276z"/>
        <path fill="#CFCFCF" stroke="#CFCFCF" stroke-linecap="round" stroke-linejoin="round" stroke-width="2.49" d="M666.365 2.2h32.512v155.316h-31.315l-.399-12.943c-6.782 9.558-16.356 14.934-28.922 14.934-25.73 0-46.872-22.103-46.872-55.754 0-33.851 21.142-56.551 46.872-56.551 12.168 0 21.542 5.177 28.124 14.137V2.2z"/>
        <path fill="#1F2A30" d="M645.621 131.63c12.367 0 20.744-11.151 20.744-28.276 0-16.925-8.377-28.275-20.744-28.275-12.167 0-20.544 11.35-20.544 28.474 0 16.727 8.377 28.077 20.544 28.077z"/>
    </g>
</svg>
